<svg width="38" height="38" viewBox="0 0 38 38" fill="none" xmlns="http://www.w3.org/2000/svg">
<g clip-path="url(#clip0_519_825)">
<path d="M19 38C29.4934 38 38 29.4934 38 19C38 8.50659 29.4934 0 19 0C8.50659 0 0 8.50659 0 19C0 29.4934 8.50659 38 19 38Z" fill="#404061"/>
<path d="M16.8604 14.0442C15.6886 13.0584 13.9921 11.284 13.4849 8.94992C13.3562 8.35846 13.3116 7.767 13.3498 7.17871C11.5643 8.71143 10.127 10.8436 10.127 13.1808C10.127 14.7453 10.5578 16.2113 11.3051 17.4673L16.8604 14.0442Z" fill="url(#paint0_linear_519_825)"/>
<path d="M19.0175 13.3241L25.7717 17.4691C26.5189 16.2131 26.9498 14.7471 26.9498 13.181C26.9498 11.9901 26.5507 9.64019 23.8812 7.27115C22.1943 5.775 20.0478 4.76855 18.5389 4.76855C17.7312 4.76855 16.7009 5.07701 15.642 5.62395C15.2159 6.5986 15.1046 7.57642 15.3129 8.54312C15.9187 11.3558 18.9746 13.2955 19.0175 13.3225V13.3241Z" fill="url(#paint1_linear_519_825)"/>
<path d="M18.5229 15.2178L12.4413 18.9669L12.2426 19.0893V20.4933C12.2394 20.7842 12.2569 21.0672 12.2918 21.3407C12.4349 22.46 12.8913 23.4315 13.6369 24.1835C13.8039 24.3521 13.9867 24.5079 14.1807 24.6542C15.2682 25.4714 16.7596 25.9166 18.4641 25.9166C20.019 25.9166 21.5534 25.4158 22.7331 24.5508C22.9859 24.3648 23.2228 24.1645 23.4406 23.9466C23.986 23.3997 24.6172 22.53 24.7857 21.3423C24.8144 21.1388 24.8318 20.9257 24.8303 20.7031C24.8303 20.6793 24.8303 20.4217 24.8303 20.0942C24.8303 19.7778 24.8303 19.3946 24.8318 19.0909L24.6331 18.9685L18.5229 15.2194V15.2178Z" fill="url(#paint2_linear_519_825)"/>
<path d="M32.8046 31.5593C30.8839 26.7163 24.6338 24.8545 24.6338 24.8545C24.6338 24.8545 23.1154 27.5876 18.6412 27.6306C14.1544 27.6751 12.3466 25.217 12.3466 25.217C7.40817 26.7942 5.48909 30.3637 4.87695 31.8869C7.44315 34.6041 10.8027 36.5629 14.5852 37.3961C15.0082 37.4692 15.4343 37.536 15.8652 37.5869C18.1944 36.7378 21.1979 35.3323 24.2029 33.0491C22.7354 32.2589 20.5539 31.5625 17.6729 31.9139C12.7759 32.5117 9.86147 33.6708 9.83285 33.6819L9.22231 32.1747C9.34792 32.1238 12.345 30.925 17.4758 30.2985C24.063 29.494 27.5402 33.5214 27.6849 33.6931L26.4431 34.744C26.4082 34.7027 26.1379 34.3942 25.637 33.992C23.5908 35.6074 21.5461 36.8253 19.6779 37.7411C20.5142 37.7109 21.341 37.6378 22.1534 37.5249C26.3493 36.7521 30.0619 34.6009 32.8062 31.5593H32.8046Z" fill="url(#paint3_linear_519_825)"/>
</g>
<defs>
<linearGradient id="paint0_linear_519_825" x1="9.91028" y1="10.7402" x2="17.2604" y2="10.7402" gradientUnits="userSpaceOnUse">
<stop stop-color="#A2FFE0"/>
<stop offset="1" stop-color="#2C9DC0"/>
</linearGradient>
<linearGradient id="paint1_linear_519_825" x1="14.8332" y1="9.16491" x2="27.6472" y2="9.16491" gradientUnits="userSpaceOnUse">
<stop stop-color="#A2FFE0"/>
<stop offset="1" stop-color="#2C9DC0"/>
</linearGradient>
<linearGradient id="paint2_linear_519_825" x1="11.8371" y1="18.9212" x2="25.5797" y2="18.9212" gradientUnits="userSpaceOnUse">
<stop stop-color="#A2FFE0"/>
<stop offset="1" stop-color="#2C9DC0"/>
</linearGradient>
<linearGradient id="paint3_linear_519_825" x1="3.97824" y1="29.3152" x2="34.4653" y2="29.3152" gradientUnits="userSpaceOnUse">
<stop stop-color="#A2FFE0"/>
<stop offset="1" stop-color="#2C9DC0"/>
</linearGradient>
<clipPath id="clip0_519_825">
<rect width="38" height="38" fill="white"/>
</clipPath>
</defs>
</svg>
